<svg width="20" height="20" viewBox="0 0 20 20" fill="none" xmlns="http://www.w3.org/2000/svg" aria-hidden="true"><path fill-rule="evenodd" clip-rule="evenodd" d="M18.3335 2.5H1.66683C1.2085 2.5 0.833496 2.875 0.833496 3.33333V16.6667C0.833496 17.125 1.2085 17.5 1.66683 17.5H18.3335C18.7918 17.5 19.1668 17.125 19.1668 16.6667V10.625V9.375V3.33333C19.1668 2.875 18.7918 2.5 18.3335 2.5ZM17.9168 5.93333H16.0418V3.75H17.9168V5.93333ZM14.7918 16.25H5.2085V10.625H14.7918V16.25ZM3.9585 9.375H2.0835V7.18333H3.9585V9.375ZM2.0835 10.625H3.9585V12.8083H2.0835V10.625ZM5.2085 9.375V3.75H14.7918V9.375H5.2085ZM3.9585 3.75V5.93333H2.0835V3.75H3.9585ZM2.0835 14.0667H3.9585V16.25H2.0835V14.0667ZM16.0418 16.25V14.0667H17.9168V16.25H16.0418ZM17.9168 12.8167H16.0418V10.625H17.9168V12.8167ZM16.0418 9.375V7.18333H17.9168V9.36667H16.0418V9.375Z" fill="#D4D7DB"></path></svg>